<?xml version="1.0" encoding="iso-8859-1"?>
<!-- Generator: Adobe Illustrator 19.0.0, SVG Export Plug-In . SVG Version: 6.00 Build 0)  -->
<svg version="1.1" id="Capa_1" xmlns="http://www.w3.org/2000/svg" xmlns:xlink="http://www.w3.org/1999/xlink" x="0px" y="0px"
	 viewBox="0 0 512.001 512.001" style="enable-background:new 0 0 512.001 512.001;" xml:space="preserve">
<path style="fill:#F27281;" d="M283.211,115.867c-5.567-35.233-20.077-69.598-40.857-96.767
	c-9.911-12.961-28.451-15.429-41.406-5.517c-11.247,8.602-14.592,23.704-8.799,36.015c0.477,1.014-0.689,2.008-1.616,1.377
	c-14.4-9.805-29.799-17.821-45.547-23.569c-15.265-5.572-32.919,1.848-38.624,17.064c-5.797,15.463,2.193,32.628,17.685,38.183
	c2.474,0.887,4.938,1.855,7.387,2.9c1.915,0.817,1.05,3.695-0.999,3.325c-8.534-1.542-17.079-2.539-25.536-2.952
	c-16.279-0.802-30.148,11.767-30.945,28.058c-0.797,16.294,11.766,30.149,28.059,30.945c24.525,1.2,50.284,9.29,72.531,22.781
	c20.231,12.268,32.367,26.126,35.419,34.416c4.397,11.943,15.696,19.34,27.721,19.34c3.389,0,6.837-0.589,10.203-1.828
	c1.141-0.42,2.235-0.91,3.29-1.451c8.785-1.222,16.927-6.364,21.643-14.674C284.87,182.281,288.657,150.336,283.211,115.867z"/>
<path style="fill:#EA6376;" d="M111.86,145.777c21.474,2.607,43.399,10.235,62.686,21.93c20.231,12.268,32.367,26.126,35.419,34.416
	c4.397,11.943,15.696,19.34,27.721,19.34c3.389,0,6.837-0.589,10.203-1.828c1.141-0.42,2.235-0.91,3.29-1.451
	c8.785-1.222,16.927-6.364,21.643-14.674c12.049-21.23,15.836-53.176,10.39-87.645c-1.378-8.718-3.306-17.381-5.738-25.897
	c-8.098-1.007-16.344-1.538-24.716-1.542C197.927,88.4,148.213,110.278,111.86,145.777z"/>
<path style="fill:#EBECEC;" d="M265.052,110.23c-111.359-0.056-201.65,90.201-201.65,201.546
	c0,41.103-16.844,111.016-16.844,111.016c-6.678,37.857,18.598,73.959,56.455,80.638l0,0c37.895,5.617,62.21-24.276,74.751-46.367
	c3.332-5.869,12.078-5.113,14.347,1.243c9.614,26.925,35.342,46.194,65.569,46.194l0,0c36.266,0,54.382-24.434,62.872-42.784
	c2.626-5.674,10.778-5.663,13.388,0.019c8.429,18.348,26.495,42.765,62.95,42.765l0,0c38.442,0,69.604-31.163,69.604-69.604V313.705
	C466.495,202.12,376.637,110.286,265.052,110.23z"/>
<path style="fill:#F27281;" d="M345.333,382.73c-15.153-19.029-19.519-37.225-22.127-48.098l-0.055-0.228
	c-2.234-9.312-11.295-15.175-20.603-13.593c-9.305-1.579-18.368,4.283-20.602,13.593l-0.055,0.228
	c-2.608,10.872-6.974,29.069-22.127,48.098c-6.222,7.814-4.932,19.193,2.883,25.416c3.329,2.651,7.305,3.939,11.255,3.939
	c5.319,0,10.589-2.336,14.16-6.822c6.007-7.543,10.727-14.965,14.486-22.015c3.76,7.049,8.479,14.472,14.486,22.015
	c3.571,4.485,8.84,6.822,14.16,6.822c3.949,0,7.926-1.288,11.255-3.939C350.265,401.922,351.556,390.544,345.333,382.73z"/>
<path style="opacity:0.1;enable-background:new    ;" d="M323.207,334.633l-0.055-0.228c-2.234-9.312-11.295-15.175-20.603-13.593
	c-9.305-1.579-18.368,4.283-20.602,13.593l-0.055,0.228c-1.36,5.671-3.216,13.344-6.814,22.079
	c4.91,4.116,11.237,6.598,18.145,6.598h18.118c6.997,0,13.534-2.259,18.879-6.121C326.492,348.256,324.592,340.406,323.207,334.633z
	"/>
<g>
	<ellipse style="fill:#F27281;" cx="206.589" cy="272.827" rx="33.943" ry="27.03"/>
	<ellipse style="fill:#F27281;" cx="390.567" cy="272.827" rx="33.943" ry="27.03"/>
</g>
<path style="fill:#F7D88B;" d="M361.382,316.869h-92.613v-38.373c0-11.672,9.462-21.134,21.134-21.134h19.714
	c29.377,0,54.542,21.027,59.764,49.936l0,0C370.28,312.284,366.448,316.869,361.382,316.869z"/>
<path style="fill:#EAC268;" d="M341.078,316.869h-72.309v7.444c0,14.122,11.449,25.571,25.571,25.571h16.39
	c14.117,0,26.211-10.105,28.72-23.997L341.078,316.869z"/>
<path style="opacity:0.08;enable-background:new    ;" d="M207.467,118.561C124.164,143.307,63.402,220.439,63.402,311.776
	c0,41.103-16.844,111.016-16.844,111.016c-6.678,37.858,18.598,73.96,56.455,80.638l0,0c22.956,3.402,40.92-6.232,54.31-19.262
	c-50.432-10.144-4.006-72.371-14.692-121.526C121.507,265.47,141.206,163.885,207.467,118.561z"/>
<path d="M70.902,311.776c0-51.85,20.196-100.59,56.868-137.244c5.685-5.682,11.66-10.966,17.891-15.842
	c0.209-0.141,0.403-0.299,0.598-0.461c33.835-26.265,75.163-40.5,118.688-40.5h0.102c54.675,0.028,107.111,23.627,143.866,64.746
	c2.761,3.09,7.502,3.354,10.59,0.594c3.088-2.761,3.354-7.502,0.594-10.59c-34.273-38.344-81.223-62.531-131.447-68.362
	c-6.803-32.682-21.008-64.299-40.339-89.573c-6.01-7.86-14.722-12.908-24.529-14.215c-9.805-1.303-19.535,1.284-27.391,7.295
	c-9.215,7.048-14.339,17.899-14.503,29.001c-11.157-6.554-22.655-12.003-34.332-16.265c-19.481-7.113-41.112,2.524-48.218,21.477
	c-3.51,9.364-3.129,19.515,1.072,28.582c1.352,2.918,3.045,5.606,5.033,8.023c-0.059-0.003-0.117-0.006-0.176-0.009
	c-9.879-0.483-19.353,2.907-26.685,9.554c-7.332,6.647-11.637,15.75-12.121,25.63c-0.998,20.398,14.786,37.805,35.185,38.803
	c7.918,0.387,15.975,1.541,24.076,3.423c-2.913,2.608-5.772,5.295-8.559,8.081C77.659,203.41,55.902,255.92,55.902,311.777
	c0,39.728-16.469,108.568-16.635,109.259c-0.036,0.15-0.068,0.302-0.094,0.454c-3.774,21.393,1.704,43.511,15.029,60.682
	c1.479,1.905,3.692,2.902,5.931,2.902c1.606,0,3.225-0.514,4.593-1.575c3.272-2.539,3.867-7.25,1.327-10.522
	c-10.69-13.775-15.111-31.498-12.146-48.662C55.161,419.072,70.902,352.503,70.902,311.776z M102.381,137.436
	c-12.137-0.594-21.528-10.95-20.935-23.088c0.288-5.877,2.849-11.293,7.213-15.249c4.363-3.956,10.004-5.978,15.875-5.685
	c8.048,0.394,16.314,1.35,24.566,2.841c4.633,0.838,9.156-1.932,10.508-6.446c1.352-4.514-0.897-9.31-5.229-11.156
	c-2.577-1.099-5.2-2.129-7.799-3.062c-5.597-2.007-10.057-6.084-12.558-11.48c-2.5-5.395-2.726-11.436-0.636-17.01
	c4.157-11.084,17.45-16.878,29.03-12.652c15.057,5.496,29.827,13.142,43.899,22.725c3.197,2.176,7.484,1.941,10.424-0.567
	c2.94-2.51,3.844-6.705,2.198-10.203c-4.379-9.307-1.617-20.604,6.57-26.865c4.675-3.576,10.462-5.122,16.297-4.341
	c5.835,0.777,11.018,3.78,14.595,8.458c17.152,22.424,29.964,50.265,36.625,79.25c-2.65-0.104-5.304-0.176-7.966-0.177h-0.109
	c-45.652,0-89.066,14.543-124.967,41.426C127.377,140.31,114.748,138.04,102.381,137.436z M442.022,201.729
	c-2.19-3.515-6.814-4.591-10.332-2.401c-3.516,2.19-4.591,6.815-2.401,10.331c19.434,31.2,29.706,67.178,29.706,104.046v121.19
	c0,34.245-27.86,62.105-62.105,62.105c-31.816,0-48.087-20.88-56.134-38.396c-2.444-5.319-7.614-8.629-13.494-8.638h-0.022
	c-5.87,0-11.039,3.294-13.494,8.6C305.634,476.099,289.321,497,257.681,497c-26.192,0-49.704-16.564-58.507-41.216
	c-2.048-5.735-7.1-9.626-13.186-10.155c-6.082-0.531-11.739,2.433-14.747,7.732c-22.726,40.028-48.977,45.309-67.029,42.665
	c-5.409-0.963-10.646-2.623-15.566-4.936c-3.748-1.76-8.215-0.149-9.978,3.599c-1.761,3.748-0.15,8.216,3.598,9.978
	c6.152,2.891,12.693,4.96,19.444,6.149c0.067,0.013,0.135,0.023,0.203,0.033c32.083,4.757,61.337-13.03,82.372-50.082
	c0.067-0.118,0.13-0.212,0.404-0.194c0.275,0.024,0.314,0.131,0.358,0.256c10.929,30.607,40.118,51.172,72.632,51.172
	c30.777,0,55.466-16.638,69.562-46.88c13.985,30.232,38.71,46.88,69.647,46.88c42.516,0,77.104-34.59,77.104-77.105V313.704
	C473.995,274.031,462.939,235.31,442.022,201.729z M386.943,250.911c4.142,0,7.5-3.357,7.5-7.5
	c0-13.044-10.612-23.655-23.656-23.655c-13.044,0-23.656,10.611-23.656,23.655c0,4.143,3.358,7.5,7.5,7.5c4.142,0,7.5-3.357,7.5-7.5
	c0-4.773,3.883-8.655,8.656-8.655c4.773,0,8.656,3.883,8.656,8.655C379.443,247.554,382.801,250.911,386.943,250.911z
	 M226.371,219.756c-13.044,0-23.656,10.611-23.656,23.655c0,4.143,3.358,7.5,7.5,7.5c4.142,0,7.5-3.357,7.5-7.5
	c0-4.773,3.883-8.655,8.656-8.655s8.656,3.883,8.656,8.655c0,4.143,3.358,7.5,7.5,7.5s7.5-3.357,7.5-7.5
	C250.026,230.367,239.415,219.756,226.371,219.756z M346.83,327.221l0.515-2.852h14.037c4.644,0,9.014-2.044,11.992-5.607
	c2.978-3.563,4.212-8.228,3.387-12.799c-5.872-32.508-34.11-56.102-67.143-56.102h-19.714c-15.789,0-28.634,12.846-28.634,28.635
	v45.817c0,8.923,3.558,17.026,9.323,22.981c-3.878,11.447-9.358,21.553-16.692,30.764c-8.788,11.036-6.96,27.165,4.079,35.956
	c4.513,3.592,10.168,5.57,15.926,5.57c7.846,0,15.146-3.518,20.028-9.649c3.068-3.853,5.948-7.849,8.619-11.955
	c2.671,4.106,5.551,8.103,8.619,11.955c4.883,6.132,12.182,9.649,20.027,9.649c5.758,0,11.415-1.979,15.927-5.571
	c11.037-8.79,12.866-24.919,4.078-35.955c-7.123-8.945-12.495-18.712-16.344-29.725C340.949,343.014,345.301,335.682,346.83,327.221
	z M339.466,387.403c3.636,4.566,2.879,11.24-1.688,14.877c-1.895,1.509-4.171,2.306-6.583,2.306c-3.249,0-6.272-1.455-8.293-3.993
	c-5.23-6.568-9.852-13.591-13.735-20.872c-1.304-2.444-3.848-3.971-6.618-3.971c-2.77,0-5.315,1.526-6.618,3.971
	c-3.883,7.281-8.504,14.304-13.736,20.873c-2.02,2.537-5.042,3.992-8.293,3.992c-2.412,0-4.689-0.798-6.582-2.306
	c-4.567-3.637-5.324-10.31-1.688-14.877c7.686-9.652,13.597-20.129,17.942-31.826c3.377,1.166,6.996,1.808,10.764,1.808h16.39
	c3.764,0,7.411-0.576,10.854-1.64C325.918,367.366,331.809,377.785,339.466,387.403z M276.272,324.369h55.831l-0.033,0.186
	c-1.866,10.331-10.841,17.83-21.34,17.83h-16.39C284.394,342.385,276.302,334.308,276.272,324.369z M276.269,309.369v-30.873
	c0-7.519,6.116-13.635,13.634-13.635h19.714c25.771,0,47.802,18.408,52.383,43.77c0.013,0.071,0.052,0.288-0.136,0.513
	c-0.188,0.226-0.409,0.226-0.481,0.226h-85.113V309.369z"/>
<g>
</g>
<g>
</g>
<g>
</g>
<g>
</g>
<g>
</g>
<g>
</g>
<g>
</g>
<g>
</g>
<g>
</g>
<g>
</g>
<g>
</g>
<g>
</g>
<g>
</g>
<g>
</g>
<g>
</g>
</svg>
